<svg width="26" height="26" viewBox="0 0 26 26" fill="none" xmlns="http://www.w3.org/2000/svg">
<g clip-path="url(#clip0_144_6161)">
<path d="M19.8901 5.91144C18.6009 5.32062 17.2406 4.89908 15.8433 4.65732C15.8306 4.65492 15.8175 4.65658 15.8058 4.66207C15.7941 4.66757 15.7845 4.67661 15.7783 4.68791C15.5927 5.02438 15.4245 5.36901 15.2736 5.72179C13.7673 5.49315 12.2352 5.49315 10.7289 5.72179C10.5936 5.39679 10.3924 4.99838 10.2166 4.68791C10.2103 4.67661 10.2007 4.66757 10.189 4.66207C10.1773 4.65658 10.1642 4.65492 10.1516 4.65732C8.75423 4.89831 7.39416 5.31988 6.1055 5.91144C6.09491 5.9169 6.08575 5.92476 6.07873 5.93438C3.50091 9.78085 2.79432 13.5356 3.14073 17.2413C3.14351 17.2595 3.15274 17.2761 3.16673 17.288C4.66811 18.3987 6.34699 19.2468 8.13197 19.7962C8.14439 19.8002 8.15777 19.8002 8.17015 19.796C8.18253 19.7919 8.19327 19.7839 8.20079 19.7733C8.58466 19.2516 8.92483 18.6991 9.21785 18.1215C9.22168 18.1137 9.2238 18.1051 9.22407 18.0964C9.22433 18.0877 9.22273 18.0791 9.21938 18.071C9.21623 18.0627 9.21132 18.0552 9.20498 18.049C9.19864 18.0428 9.19103 18.0381 9.18267 18.0351C8.64738 17.8301 8.12814 17.5831 7.63185 17.2964C7.62309 17.2908 7.61572 17.2832 7.61029 17.2744C7.60486 17.2655 7.60151 17.2555 7.6005 17.2451C7.59956 17.2346 7.6014 17.2239 7.60582 17.2143C7.61025 17.2046 7.61711 17.1963 7.62573 17.1901C7.72973 17.1121 7.8322 17.0318 7.93315 16.9492C7.94207 16.9418 7.95291 16.937 7.96442 16.9356C7.97593 16.9341 7.98763 16.9359 7.99815 16.9408C11.252 18.4243 14.7734 18.4243 17.989 16.9408C17.9996 16.9356 18.0114 16.9336 18.023 16.935C18.0347 16.9363 18.0457 16.941 18.0548 16.9484C18.1547 17.031 18.2577 17.1116 18.3637 17.1901C18.3718 17.1967 18.3782 17.2049 18.3826 17.2143C18.3869 17.2237 18.3891 17.234 18.389 17.2444C18.3888 17.255 18.3859 17.2653 18.3805 17.2744C18.3752 17.2835 18.3675 17.2911 18.3584 17.2964C17.8618 17.5854 17.3444 17.8314 16.806 18.0343C16.7934 18.0388 16.7827 18.0473 16.7753 18.0585C16.768 18.0697 16.7646 18.0829 16.7655 18.0963C16.766 18.1054 16.7686 18.1141 16.7731 18.1223C17.0697 18.6965 17.4086 19.2479 17.7871 19.7717C17.7947 19.7829 17.8056 19.7912 17.8183 19.7955C17.831 19.7998 17.8448 19.7997 17.8575 19.7954C19.6454 19.2484 21.3269 18.4004 22.8296 17.288C22.8371 17.2827 22.8433 17.2759 22.8478 17.268C22.8523 17.26 22.855 17.2512 22.8556 17.2421C23.2701 12.9567 22.1613 9.23485 19.9161 5.93438C19.9102 5.92406 19.9011 5.91599 19.8901 5.91144ZM9.70267 14.9847C8.72385 14.9847 7.91632 14.0861 7.91632 12.9827C7.91632 11.8792 8.70779 10.9799 9.70267 10.9799C10.706 10.9799 11.5059 11.8869 11.4898 12.9827C11.4898 14.0861 10.6976 14.9847 9.70267 14.9847ZM16.3097 14.9847C15.3301 14.9847 14.5226 14.0861 14.5226 12.9827C14.5226 11.8792 15.3141 10.9799 16.3097 10.9799C17.3123 10.9799 18.1121 11.8869 18.0961 12.9827C18.0961 14.0861 17.3123 14.9847 16.3097 14.9847Z" fill="white"/>
</g>
<defs>
<clipPath id="clip0_144_6161">
<rect width="26" height="26" fill="white"/>
</clipPath>
</defs>
</svg>
