<svg width="26" height="26" viewBox="0 0 26 26" fill="none" xmlns="http://www.w3.org/2000/svg">
<path fill-rule="evenodd" clip-rule="evenodd" d="M12.9998 3.05884C7.50765 3.05884 3.05859 7.5079 3.05859 13C3.05859 17.394 5.90865 21.1166 9.85683 22.435C10.3508 22.5267 10.5344 22.2208 10.5344 21.9532C10.5344 21.7146 10.5282 21.0921 10.5221 20.2624C7.75771 20.8604 7.17195 18.9318 7.17195 18.9318C6.72077 17.7848 6.06695 17.4789 6.06695 17.4789C5.16459 16.8633 6.13424 16.8748 6.13424 16.8748C7.12836 16.9482 7.65983 17.9003 7.65983 17.9003C8.54459 19.4197 9.98454 18.9808 10.5527 18.7238C10.6445 18.0838 10.9007 17.6441 11.1813 17.3933C8.97206 17.144 6.65271 16.289 6.65271 12.4815C6.65271 11.3957 7.03736 10.5101 7.67818 9.81425C7.57418 9.56419 7.23312 8.55096 7.77606 7.18366C7.77606 7.18366 8.61189 6.91601 10.5099 8.20301C11.3217 7.98344 12.1588 7.87109 12.9998 7.86884C13.8417 7.86884 14.6967 7.98431 15.4897 8.20378C17.3877 6.91678 18.2235 7.18519 18.2235 7.18519C18.7664 8.55172 18.4254 9.56496 18.3214 9.81578C18.9561 10.5109 19.3399 11.3957 19.3399 12.4823C19.3399 16.302 17.0152 17.1386 14.7999 17.3887C15.1539 17.6938 15.4774 18.304 15.4774 19.2316C15.4774 20.5622 15.4652 21.6297 15.4652 21.9593C15.4652 22.2277 15.6426 22.5328 16.1488 22.4357C20.0962 21.1166 22.9409 17.394 22.9409 13.0061C22.9409 7.5079 18.4919 3.05884 12.9998 3.05884Z" fill="white"/>
</svg>
