<svg width="26" height="26" viewBox="0 0 26 26" fill="none" xmlns="http://www.w3.org/2000/svg">
<g clip-path="url(#clip0_144_6169)">
<path fill-rule="evenodd" clip-rule="evenodd" d="M6.78654 3.05884H19.213C20.2016 3.05924 21.1496 3.45214 21.8486 4.15117C22.5476 4.85021 22.9405 5.79819 22.9409 6.78678V19.2132C22.9405 20.2018 22.5476 21.1498 21.8486 21.8489C21.1496 22.5479 20.2016 22.9408 19.213 22.9412H6.78654C5.79795 22.9408 4.84997 22.5479 4.15093 21.8489C3.45189 21.1498 3.059 20.2018 3.05859 19.2132V6.78678C3.059 5.79819 3.45189 4.85021 4.15093 4.15117C4.84997 3.45214 5.79795 3.05924 6.78654 3.05884ZM6.11742 19.9359H9.20683L9.18848 10.6875H6.09906L6.11742 19.9359ZM7.58412 9.47778H7.56577C6.55636 9.47778 5.90636 8.7819 5.90636 7.91625C5.90636 7.02843 6.57701 6.35625 7.60401 6.35625C8.63254 6.35625 9.26342 7.02843 9.28406 7.91625C9.28406 8.7819 8.62948 9.47778 7.58412 9.47778ZM16.7988 19.9359H19.9112V14.5646C19.9112 11.7902 18.4338 10.4987 16.4562 10.4987C14.8611 10.4987 14.195 11.375 13.7943 11.9929L13.7759 10.6875H10.646L10.6636 19.9359H13.7951V14.7C13.7951 14.4277 13.8149 14.1624 13.8968 13.9674C14.1109 13.4275 14.5598 12.8685 15.3895 12.8685C16.4769 12.8685 16.7996 13.6959 16.7996 14.9118L16.7988 19.9359Z" fill="white"/>
</g>
<defs>
<clipPath id="clip0_144_6169">
<rect width="26" height="26" fill="white"/>
</clipPath>
</defs>
</svg>
