<svg width="26" height="26" viewBox="0 0 26 26" fill="none" xmlns="http://www.w3.org/2000/svg">
<g clip-path="url(#clip0_144_6173)">
<path fill-rule="evenodd" clip-rule="evenodd" d="M22.9299 5.23777L19.5552 21.4687C19.5368 21.5569 19.4966 21.6391 19.4382 21.7078C19.3799 21.7765 19.3053 21.8295 19.2212 21.862C19.1371 21.8945 19.0462 21.9054 18.9568 21.8937C18.8674 21.882 18.7824 21.8482 18.7095 21.7952L14.1036 18.4511C13.9676 18.3523 13.8027 18.3013 13.6346 18.306C13.4666 18.3107 13.3048 18.3708 13.1745 18.4771L10.6204 20.5587C10.5545 20.6125 10.4769 20.6499 10.3938 20.668C10.3106 20.6861 10.2244 20.6842 10.1422 20.6626C10.0599 20.641 9.98395 20.6002 9.92047 20.5436C9.85699 20.487 9.8078 20.4161 9.77693 20.3369L10.0667 18.1919C10.1287 17.7328 10.3479 17.3093 10.6869 16.9936L20.3505 8.01136C20.531 7.84312 20.3146 7.55942 20.1043 7.68865L8.39587 14.8998C8.30257 14.9579 8.21998 15.0258 8.1481 15.1032L7.99134 14.5985L3.40998 12.8887C2.94428 12.7135 2.94046 12.0567 3.40463 11.8785L22.2072 4.62524C22.2978 4.59021 22.3961 4.58024 22.4918 4.59638C22.5875 4.61252 22.6771 4.65417 22.7512 4.71694C22.8252 4.77972 22.8809 4.86129 22.9125 4.95309C22.9441 5.04488 22.9504 5.14349 22.9306 5.23853" fill="white"/>
</g>
<defs>
<clipPath id="clip0_144_6173">
<rect width="26" height="26" fill="white"/>
</clipPath>
</defs>
</svg>
