<svg width="310" height="310" viewBox="0 0 310 310" fill="none" xmlns="http://www.w3.org/2000/svg">
<mask id="path-1-inside-1_144_5138" fill="white">
<path d="M180.654 283.805C212.734 277.336 241.261 259.165 260.683 232.825C280.105 206.486 289.034 173.864 285.733 141.305C282.431 108.746 267.135 78.5803 242.82 56.6764C218.506 34.7725 186.912 22.6974 154.187 22.8007C121.461 22.9039 89.9446 35.178 65.7689 57.2348C41.5931 79.2917 26.4876 109.554 23.3914 142.133C20.2952 174.711 29.4297 207.277 49.0177 233.493C68.6058 259.709 97.2462 277.7 129.366 283.966L137.355 243.018C115.402 238.735 95.827 226.439 82.4393 208.521C69.0516 190.604 62.8085 168.346 64.9246 146.08C67.0408 123.813 77.3649 103.13 93.8881 88.0553C110.411 72.9803 131.952 64.5914 154.319 64.5209C176.685 64.4503 198.278 72.7032 214.896 87.6737C231.514 102.644 241.969 123.262 244.225 145.514C246.482 167.767 240.379 190.063 227.105 208.065C213.83 226.067 194.334 238.486 172.408 242.907L180.654 283.805Z"/>
</mask>
<path d="M180.654 283.805C212.734 277.336 241.261 259.165 260.683 232.825C280.105 206.486 289.034 173.864 285.733 141.305C282.431 108.746 267.135 78.5803 242.82 56.6764C218.506 34.7725 186.912 22.6974 154.187 22.8007C121.461 22.9039 89.9446 35.178 65.7689 57.2348C41.5931 79.2917 26.4876 109.554 23.3914 142.133C20.2952 174.711 29.4297 207.277 49.0177 233.493C68.6058 259.709 97.2462 277.7 129.366 283.966L137.355 243.018C115.402 238.735 95.827 226.439 82.4393 208.521C69.0516 190.604 62.8085 168.346 64.9246 146.08C67.0408 123.813 77.3649 103.13 93.8881 88.0553C110.411 72.9803 131.952 64.5914 154.319 64.5209C176.685 64.4503 198.278 72.7032 214.896 87.6737C231.514 102.644 241.969 123.262 244.225 145.514C246.482 167.767 240.379 190.063 227.105 208.065C213.83 226.067 194.334 238.486 172.408 242.907L180.654 283.805Z" stroke="#FF4500" stroke-width="2" mask="url(#path-1-inside-1_144_5138)"/>
<path d="M132.65 284.564C147.49 287.071 162.649 287.017 177.471 284.406L170.232 243.318C160.102 245.103 149.741 245.14 139.599 243.426L132.65 284.564Z" fill="#FF4500"/>
</svg>
