<svg width="101" height="40" viewBox="0 0 101 40" fill="none" xmlns="http://www.w3.org/2000/svg">
<path d="M26.16 25H24.352L20.384 19.496L18.784 21.112V25H17.328V13.8H18.784V19.192L24.112 13.8H26.048L21.424 18.44L26.16 25ZM34.3513 23.816L34.3833 25C34.0793 25.048 33.8073 25.064 33.4873 25.064C32.6073 25.064 32.1273 24.648 32.0473 23.816C31.5993 24.728 30.7193 25.192 29.3593 25.192C28.0153 25.192 26.6713 24.456 26.6713 22.888C26.6713 21.16 28.1273 20.68 29.3913 20.44L32.0313 19.928C32.0313 19.208 31.9993 18.808 31.7593 18.472C31.5353 18.152 31.0073 17.944 30.3033 17.944C28.9113 17.944 28.3513 18.456 28.3513 19.672L26.9433 19.48C26.9753 18.52 27.3113 17.816 27.9353 17.4C28.5113 17.016 29.3593 16.808 30.3833 16.808C32.3993 16.808 33.4233 17.704 33.4233 19.448V23.272C33.4233 23.688 33.4233 23.88 33.8873 23.88C34.0153 23.88 34.1433 23.864 34.3513 23.816ZM32.0313 21.976V21L29.6153 21.528C28.7673 21.72 28.1432 21.96 28.1432 22.872C28.1432 23.624 28.7993 24.04 29.5833 24.04C31.3273 24.04 32.0313 23.128 32.0313 21.976ZM39.6479 16.824C39.7759 16.808 40.0799 16.808 40.1919 16.808L40.1599 18.168C40.0639 18.152 39.9359 18.152 39.7919 18.152C38.2719 18.152 37.1679 18.632 37.1679 21.208V25H35.7279V17H37.1679V18.408C37.3919 17.64 38.3359 16.92 39.6479 16.824ZM50.4565 16.808C52.2485 16.808 53.2245 17.832 53.2245 19.816V25H51.7525V20.296C51.7525 19.544 51.7525 18.888 51.2725 18.44C50.8245 18.008 50.2325 17.992 49.9285 17.992C49.4485 17.992 49.0485 18.152 48.7445 18.424C48.3605 18.776 48.0085 19.304 48.0085 20.584V25H46.5365V20.296C46.5365 19.544 46.5365 18.888 46.0565 18.44C45.6085 18.008 45.0165 17.992 44.7125 17.992C44.2165 17.992 43.8165 18.168 43.5285 18.424C43.1445 18.776 42.7925 19.304 42.7925 20.584V25H41.3685V17H42.7925V18.2C42.8885 17.96 43.0485 17.688 43.3845 17.416C43.7525 17.112 44.3285 16.808 45.2565 16.808C46.5205 16.808 47.4325 17.432 47.8165 18.504C47.9765 18.072 48.2165 17.736 48.5845 17.416C48.9685 17.096 49.4805 16.808 50.4565 16.808ZM62.5231 23.816L62.5551 25C62.2511 25.048 61.9791 25.064 61.6591 25.064C60.7791 25.064 60.2991 24.648 60.2191 23.816C59.7711 24.728 58.8911 25.192 57.5311 25.192C56.1871 25.192 54.8431 24.456 54.8431 22.888C54.8431 21.16 56.2991 20.68 57.5631 20.44L60.2031 19.928C60.2031 19.208 60.1711 18.808 59.9311 18.472C59.7071 18.152 59.1791 17.944 58.4751 17.944C57.0831 17.944 56.5231 18.456 56.5231 19.672L55.1151 19.48C55.1471 18.52 55.4831 17.816 56.1071 17.4C56.6831 17.016 57.5311 16.808 58.5551 16.808C60.5711 16.808 61.5951 17.704 61.5951 19.448V23.272C61.5951 23.688 61.5951 23.88 62.0591 23.88C62.1871 23.88 62.3151 23.864 62.5231 23.816ZM60.2031 21.976V21L57.7871 21.528C56.9391 21.72 56.3151 21.96 56.3151 22.872C56.3151 23.624 56.9711 24.04 57.7551 24.04C59.4991 24.04 60.2031 23.128 60.2031 21.976Z" fill="#494F59"/>
<path d="M72 19V18C72 16.345 72.5 15 75 15C77.5 15 78 16.345 78 18V19" stroke="#494F59" stroke-width="1.4" stroke-linecap="round" stroke-linejoin="round"/>
<path d="M77.5 25H72.5C70.5 25 70 24.5 70 22.5V21.5C70 19.5 70.5 19 72.5 19H77.5C79.5 19 80 19.5 80 21.5V22.5C80 24.5 79.5 25 77.5 25Z" stroke="#494F59" stroke-width="1.4" stroke-linecap="round" stroke-linejoin="round"/>
<path d="M74.9977 22H75.0022" stroke="#494F59" stroke-width="2" stroke-linecap="round" stroke-linejoin="round"/>
</svg>
