<svg width="52" height="52" viewBox="0 0 52 52" fill="none" xmlns="http://www.w3.org/2000/svg">
<g clip-path="url(#clip0_144_6160)">
<path d="M32.8901 18.9114C31.6009 18.3206 30.2406 17.8991 28.8433 17.6573C28.8306 17.6549 28.8175 17.6566 28.8058 17.6621C28.7941 17.6676 28.7845 17.6766 28.7783 17.6879C28.5927 18.0244 28.4245 18.369 28.2736 18.7218C26.7673 18.4932 25.2352 18.4932 23.7289 18.7218C23.5936 18.3968 23.3924 17.9984 23.2166 17.6879C23.2103 17.6766 23.2007 17.6676 23.189 17.6621C23.1773 17.6566 23.1642 17.6549 23.1516 17.6573C21.7542 17.8983 20.3942 18.3199 19.1055 18.9114C19.0949 18.9169 19.0857 18.9248 19.0787 18.9344C16.5009 22.7809 15.7943 26.5356 16.1407 30.2413C16.1435 30.2595 16.1527 30.2761 16.1667 30.288C17.6681 31.3987 19.347 32.2468 21.132 32.7962C21.1444 32.8002 21.1578 32.8002 21.1701 32.796C21.1825 32.7919 21.1933 32.7839 21.2008 32.7733C21.5847 32.2516 21.9248 31.6991 22.2179 31.1215C22.2217 31.1137 22.2238 31.1051 22.2241 31.0964C22.2243 31.0877 22.2227 31.0791 22.2194 31.071C22.2162 31.0627 22.2113 31.0552 22.205 31.049C22.1986 31.0428 22.191 31.0381 22.1827 31.0351C21.6474 30.8301 21.1281 30.5831 20.6319 30.2964C20.6231 30.2908 20.6157 30.2832 20.6103 30.2744C20.6049 30.2655 20.6015 30.2555 20.6005 30.2451C20.5996 30.2346 20.6014 30.2239 20.6058 30.2143C20.6102 30.2046 20.6171 30.1963 20.6257 30.1901C20.7297 30.1121 20.8322 30.0318 20.9331 29.9492C20.9421 29.9418 20.9529 29.937 20.9644 29.9356C20.9759 29.9341 20.9876 29.9359 20.9981 29.9408C24.252 31.4243 27.7734 31.4243 30.989 29.9408C30.9996 29.9356 31.0114 29.9336 31.023 29.935C31.0347 29.9363 31.0457 29.941 31.0548 29.9484C31.1547 30.031 31.2577 30.1116 31.3637 30.1901C31.3718 30.1967 31.3782 30.2049 31.3826 30.2143C31.3869 30.2237 31.3891 30.234 31.389 30.2444C31.3888 30.255 31.3859 30.2653 31.3805 30.2744C31.3752 30.2835 31.3675 30.2911 31.3584 30.2964C30.8618 30.5854 30.3444 30.8314 29.806 31.0343C29.7934 31.0388 29.7827 31.0473 29.7753 31.0585C29.768 31.0697 29.7646 31.0829 29.7655 31.0963C29.766 31.1054 29.7686 31.1141 29.7731 31.1223C30.0697 31.6965 30.4086 32.2479 30.7871 32.7717C30.7947 32.7829 30.8056 32.7912 30.8183 32.7955C30.831 32.7998 30.8448 32.7997 30.8575 32.7954C32.6454 32.2484 34.3269 31.4004 35.8296 30.288C35.8371 30.2827 35.8433 30.2759 35.8478 30.268C35.8523 30.26 35.855 30.2512 35.8556 30.2421C36.2701 25.9567 35.1613 22.2349 32.9161 18.9344C32.9102 18.9241 32.9011 18.916 32.8901 18.9114ZM22.7027 27.9847C21.7239 27.9847 20.9163 27.0861 20.9163 25.9827C20.9163 24.8792 21.7078 23.9799 22.7027 23.9799C23.706 23.9799 24.5059 24.8869 24.4898 25.9827C24.4898 27.0861 23.6976 27.9847 22.7027 27.9847ZM29.3097 27.9847C28.3301 27.9847 27.5226 27.0861 27.5226 25.9827C27.5226 24.8792 28.3141 23.9799 29.3097 23.9799C30.3123 23.9799 31.1121 24.8869 31.0961 25.9827C31.0961 27.0861 30.3123 27.9847 29.3097 27.9847Z" fill="white"/>
</g>
<defs>
<clipPath id="clip0_144_6160">
<rect width="26" height="26" fill="white" transform="translate(13 13)"/>
</clipPath>
</defs>
</svg>
