<svg width="52" height="52" viewBox="0 0 52 52" fill="none" xmlns="http://www.w3.org/2000/svg">
<g clip-path="url(#clip0_144_6168)">
<path fill-rule="evenodd" clip-rule="evenodd" d="M19.7865 16.0588H32.213C33.2016 16.0592 34.1496 16.4521 34.8486 17.1512C35.5476 17.8502 35.9405 18.7982 35.9409 19.7868V32.2132C35.9405 33.2018 35.5476 34.1498 34.8486 34.8489C34.1496 35.5479 33.2016 35.9408 32.213 35.9412H19.7865C18.7979 35.9408 17.85 35.5479 17.1509 34.8489C16.4519 34.1498 16.059 33.2018 16.0586 32.2132V19.7868C16.059 18.7982 16.4519 17.8502 17.1509 17.1512C17.85 16.4521 18.7979 16.0592 19.7865 16.0588ZM19.1174 32.9359H22.2068L22.1885 23.6875H19.0991L19.1174 32.9359ZM20.5841 22.4778H20.5658C19.5564 22.4778 18.9064 21.7819 18.9064 20.9162C18.9064 20.0284 19.577 19.3562 20.604 19.3562C21.6325 19.3562 22.2634 20.0284 22.2841 20.9162C22.2841 21.7819 21.6295 22.4778 20.5841 22.4778ZM29.7988 32.9359H32.9112V27.5646C32.9112 24.7902 31.4338 23.4987 29.4562 23.4987C27.8611 23.4987 27.195 24.375 26.7943 24.9929L26.7759 23.6875H23.646L23.6636 32.9359H26.7951V27.7C26.7951 27.4277 26.8149 27.1624 26.8968 26.9674C27.1109 26.4275 27.5598 25.8685 28.3895 25.8685C29.4769 25.8685 29.7996 26.6959 29.7996 27.9118L29.7988 32.9359Z" fill="white"/>
</g>
<defs>
<clipPath id="clip0_144_6168">
<rect width="26" height="26" fill="white" transform="translate(13 13)"/>
</clipPath>
</defs>
</svg>
