<svg width="52" height="52" viewBox="0 0 52 52" fill="none" xmlns="http://www.w3.org/2000/svg">
<g clip-path="url(#clip0_144_6172)">
<path fill-rule="evenodd" clip-rule="evenodd" d="M35.9299 18.2378L32.5552 34.4687C32.5368 34.5569 32.4966 34.6391 32.4382 34.7078C32.3799 34.7765 32.3053 34.8295 32.2212 34.862C32.1371 34.8945 32.0462 34.9054 31.9568 34.8937C31.8674 34.882 31.7824 34.8482 31.7095 34.7952L27.1036 31.4511C26.9676 31.3523 26.8027 31.3013 26.6346 31.306C26.4666 31.3107 26.3048 31.3708 26.1745 31.4771L23.6204 33.5587C23.5545 33.6125 23.4769 33.6499 23.3938 33.668C23.3106 33.6861 23.2244 33.6842 23.1422 33.6626C23.0599 33.641 22.984 33.6002 22.9205 33.5436C22.857 33.487 22.8078 33.4161 22.7769 33.3369L23.0667 31.1919C23.1287 30.7328 23.3479 30.3093 23.6869 29.9936L33.3505 21.0114C33.531 20.8431 33.3146 20.5594 33.1043 20.6887L21.3959 27.8998C21.3026 27.9579 21.22 28.0258 21.1481 28.1032L20.9913 27.5985L16.41 25.8887C15.9443 25.7135 15.9405 25.0567 16.4046 24.8785L35.2072 17.6252C35.2978 17.5902 35.3961 17.5802 35.4918 17.5964C35.5875 17.6125 35.6771 17.6542 35.7512 17.7169C35.8252 17.7797 35.8809 17.8613 35.9125 17.9531C35.9441 18.0449 35.9504 18.1435 35.9306 18.2385" fill="white"/>
</g>
<defs>
<clipPath id="clip0_144_6172">
<rect width="26" height="26" fill="white" transform="translate(13 13)"/>
</clipPath>
</defs>
</svg>
