<svg width="52" height="52" viewBox="0 0 52 52" fill="none" xmlns="http://www.w3.org/2000/svg">
<g clip-path="url(#clip0_144_6164)">
<path fill-rule="evenodd" clip-rule="evenodd" d="M25.9998 16.0588C20.5077 16.0588 16.0586 20.5079 16.0586 26C16.0586 30.394 18.9087 34.1166 22.8568 35.435C23.3508 35.5267 23.5344 35.2208 23.5344 34.9532C23.5344 34.7146 23.5282 34.0921 23.5221 33.2624C20.7577 33.8604 20.1719 31.9318 20.1719 31.9318C19.7208 30.7848 19.0669 30.4789 19.0669 30.4789C18.1646 29.8633 19.1342 29.8748 19.1342 29.8748C20.1284 29.9482 20.6598 30.9003 20.6598 30.9003C21.5446 32.4197 22.9845 31.9808 23.5527 31.7238C23.6445 31.0838 23.9007 30.6441 24.1813 30.3933C21.9721 30.144 19.6527 29.289 19.6527 25.4815C19.6527 24.3957 20.0374 23.5101 20.6782 22.8142C20.5742 22.5642 20.2331 21.551 20.7761 20.1837C20.7761 20.1837 21.6119 19.916 23.5099 21.203C24.3217 20.9834 25.1588 20.8711 25.9998 20.8688C26.8417 20.8688 27.6967 20.9843 28.4897 21.2038C30.3877 19.9168 31.2235 20.1852 31.2235 20.1852C31.7664 21.5517 31.4254 22.565 31.3214 22.8158C31.9561 23.5109 32.3399 24.3957 32.3399 25.4823C32.3399 29.302 30.0152 30.1386 27.7999 30.3887C28.1539 30.6938 28.4774 31.304 28.4774 32.2316C28.4774 33.5622 28.4652 34.6297 28.4652 34.9593C28.4652 35.2277 28.6426 35.5328 29.1488 35.4357C33.0962 34.1166 35.9409 30.394 35.9409 26.0061C35.9409 20.5079 31.4919 16.0588 25.9998 16.0588Z" fill="white"/>
</g>
<defs>
<clipPath id="clip0_144_6164">
<rect width="26" height="26" fill="white" transform="translate(13 13)"/>
</clipPath>
</defs>
</svg>
