<svg width="81" height="82" viewBox="0 0 81 82" fill="none" xmlns="http://www.w3.org/2000/svg">
<circle cx="40.32" cy="41.1999" r="40.32" fill="white"/>
<path d="M61.261 36.9433L54.5381 25.2968C53.7906 24.0021 52.7154 22.9271 51.4206 22.1799C50.1257 21.4326 48.657 21.0395 47.162 21.04H33.7201C32.2251 21.0395 30.7563 21.4326 29.4615 22.1799C28.1667 22.9271 27.0915 24.0021 26.344 25.2968L19.6211 36.9433C18.8739 38.2375 18.4805 39.7056 18.4805 41.2C18.4805 42.6945 18.8739 44.1626 19.6211 45.4568L26.344 57.1032C27.0915 58.3979 28.1667 59.473 29.4615 60.2202C30.7563 60.9675 32.2251 61.3606 33.7201 61.36H47.1649C48.6599 61.3606 50.1287 60.9675 51.4235 60.2202C52.7183 59.473 53.7935 58.3979 54.541 57.1032L61.2639 45.4568C62.0107 44.1623 62.4036 42.6941 62.4031 41.1996C62.4026 39.7052 62.0087 38.2372 61.261 36.9433ZM56.7354 43.3682C56.7354 43.9349 56.5863 44.4916 56.303 44.9825C56.0196 45.4733 55.6121 45.8809 55.1214 46.1643L37.4023 56.3938C36.9115 56.6775 36.3547 56.8269 35.7878 56.8269C35.2209 56.8269 34.6641 56.6775 34.1733 56.3938L30.4183 54.2266C29.9276 53.9431 29.5202 53.5354 29.2369 53.0446C28.9536 52.5539 28.8044 51.9972 28.8043 51.4305V30.9706C28.8042 30.4038 28.9533 29.8471 29.2366 29.3562C29.5199 28.8654 29.9275 28.4578 30.4183 28.1744L34.1733 26.0063C34.6643 25.7231 35.221 25.5739 35.7878 25.5739C36.3546 25.5739 36.9114 25.7231 37.4023 26.0063L55.1214 36.2367C55.612 36.52 56.0195 36.9274 56.3029 37.418C56.5862 37.9087 56.7353 38.4653 56.7354 39.0318V43.3682Z" fill="#0F1012"/>
</svg>
