<svg width="134" height="24" viewBox="0 0 134 24" fill="none" xmlns="http://www.w3.org/2000/svg">
<path d="M45.6473 2.80684H43.0223C42.6023 5.09059 41.0273 6.11434 38.1398 6.11434V8.81809C38.3761 8.84434 38.6386 8.87059 38.9011 8.87059C40.3711 8.87059 41.7361 8.52934 42.5498 7.74184V18.1631H37.9561V20.8143H49.7686V18.1631H45.6473V2.80684Z" fill="white"/>
<path d="M56.8591 2.49184C52.2654 2.49184 50.0866 6.32434 50.0866 11.7843C50.0866 17.9268 52.4229 21.1031 56.8591 21.1031C61.4791 21.1031 63.6579 17.2968 63.6579 11.7843C63.6579 6.35059 61.4791 2.49184 56.8591 2.49184ZM54.2866 6.45559C54.8116 5.56309 55.5991 5.11684 56.8591 5.11684C57.5416 5.11684 58.0929 5.24809 58.5391 5.51059L53.6829 15.5118C53.4991 14.5143 53.4204 13.2806 53.4204 11.7843C53.4204 9.31684 53.6041 7.53184 54.2866 6.45559ZM59.2216 17.5068C58.6966 18.1893 57.9354 18.5306 56.8591 18.5306C56.0979 18.5306 55.5204 18.3731 55.0479 18.0318L59.9829 7.79434C60.2454 8.81809 60.3241 10.1568 60.3241 11.7843C60.3241 14.4881 60.0616 16.4306 59.2216 17.5068Z" fill="white"/>
<path d="M69.1997 20.7881V13.7531H72.4285C75.8672 13.7531 79.9622 13.2018 79.9622 8.10934C79.9622 2.96434 75.841 2.41309 72.4547 2.41309H65.9185V20.7881H69.1997ZM69.1997 5.06434H72.4022C74.5285 5.06434 76.681 5.11684 76.681 8.10934C76.681 10.9968 74.5285 11.1281 72.376 11.1281H69.1997V5.06434Z" fill="white"/>
<path d="M84.2098 20.7881V2.41309H81.086V20.7881H84.2098Z" fill="white"/>
<path d="M97.3678 11.6793C97.3678 8.81809 95.4516 7.34809 92.0653 7.34809C90.2278 7.34809 88.7841 7.68934 87.8128 8.37184C86.8153 9.05434 86.2378 10.1568 86.1591 11.7056L89.2041 12.0993C89.2303 10.2618 90.0703 9.63184 91.8816 9.63184C92.9578 9.63184 93.6141 9.86809 93.9816 10.3668C94.3491 10.8918 94.3491 11.5218 94.3491 12.3881L90.4378 13.1231C88.0491 13.5693 85.7128 14.3568 85.7128 17.1656C85.7128 19.8168 87.8391 21.1031 90.2541 21.1031C92.4066 21.1031 93.8241 20.2106 94.5066 18.9243C94.5066 19.7381 94.5853 20.2893 94.6903 20.7881H97.8141V20.6831C97.5516 20.0531 97.3678 19.2918 97.3678 18.4256V11.6793ZM94.3491 15.7481C94.3491 17.6906 93.1416 18.8193 90.9103 18.8193C89.7816 18.8193 88.8891 18.2681 88.8891 17.1393C88.8891 15.9318 89.7291 15.5381 90.9366 15.2493L94.3491 14.5143V15.7481Z" fill="white"/>
<path d="M110.943 8.81809C110.261 7.89934 109.053 7.34809 107.583 7.34809C105.614 7.34809 104.302 8.13559 103.462 9.76309L103.829 7.66309H100.784L98.4482 20.7881H101.519L102.753 13.7793C103.252 10.8656 104.827 9.78934 106.271 9.78934C107.006 9.78934 107.688 9.92059 108.108 10.4718C108.659 11.1018 108.554 12.0993 108.371 13.1756L107.032 20.7881H110.182L111.494 13.2806C111.783 11.6531 111.836 9.97309 110.943 8.81809Z" fill="white"/>
<path d="M124.028 9.52684C122.926 8.13559 121.167 7.34809 119.093 7.34809C117.098 7.34809 115.523 7.97809 114.368 9.18559C113.187 10.4456 112.609 12.1781 112.609 14.1993C112.609 16.3256 113.161 18.0581 114.368 19.2918C115.497 20.4468 117.072 21.1031 119.119 21.1031C122.479 21.1031 124.632 19.6068 125.314 16.5881L122.296 16.3518C122.007 17.9531 121.009 18.7668 119.093 18.7668C116.914 18.7668 115.812 17.5331 115.759 15.0918H125.524C125.603 12.8343 125.078 10.8393 124.028 9.52684ZM119.093 9.68434C120.248 9.68434 121.036 9.99934 121.613 10.7081C122.059 11.2593 122.296 12.0206 122.348 12.7556H115.786C115.838 12.1256 116.022 11.4168 116.442 10.8393C116.967 10.1043 117.859 9.68434 119.093 9.68434Z" fill="white"/>
<path d="M131.71 20.9193C132.288 20.9193 132.944 20.8668 133.443 20.7618L133.39 18.0581C132.944 18.1368 132.498 18.1893 132.183 18.1893C131.238 18.1893 130.818 18.0056 130.818 17.2181V10.1568H133.495V7.66309H130.818V4.01434H127.746V7.66309H125.856V10.1568H127.746V17.4806C127.746 19.9481 129.216 20.9193 131.71 20.9193Z" fill="white"/>
<path d="M17.6392 7.99997H20.3079C20.6756 7.99997 20.9736 8.29797 20.9736 8.66559V15.3343C20.9736 15.702 20.6756 16 20.3079 16H17.6392C17.2716 16 16.9736 15.702 16.9736 15.3343V8.66559C16.9736 8.29797 17.2716 7.99997 17.6392 7.99997Z" fill="white"/>
<path fill-rule="evenodd" clip-rule="evenodd" d="M24.9736 3.33438C24.9737 3.51091 25.0438 3.68018 25.1686 3.80499C25.2935 3.92982 25.4627 3.99997 25.6393 4H28.308C28.4846 4 28.6539 4.07012 28.7787 4.19494C28.9035 4.31978 28.9736 4.48909 28.9736 4.66562V19.3344C28.9736 19.5109 28.9035 19.6802 28.7787 19.8051C28.6539 19.9299 28.4846 20 28.308 20H25.6393C25.4627 20 25.2935 20.0702 25.1686 20.195C25.0438 20.3198 24.9737 20.4891 24.9736 20.6656V23.3344C24.9736 23.5109 24.9035 23.6802 24.7787 23.8051C24.6539 23.9299 24.4845 24 24.308 24H5.63925C5.46272 24 5.29341 23.9299 5.16858 23.8051C5.04375 23.6802 4.97363 23.5109 4.97363 23.3344V20.6656C4.97361 20.4891 4.90346 20.3198 4.77863 20.195C4.65381 20.0702 4.48454 20 4.30801 20H1.63925C1.46272 20 1.29341 19.9299 1.16858 19.8051C1.04375 19.6802 0.973633 19.5109 0.973633 19.3344V4.66562C0.973633 4.48909 1.04375 4.31978 1.16858 4.19494C1.29341 4.07012 1.46272 4 1.63925 4H4.30801C4.48454 3.99997 4.65381 3.92982 4.77863 3.80499C4.90346 3.68018 4.97361 3.51091 4.97363 3.33438V0.665623C4.97363 0.48909 5.04375 0.31978 5.16858 0.194944C5.29341 0.0701218 5.46272 0 5.63925 0H24.308C24.4845 0 24.6539 0.0701218 24.7787 0.194944C24.9035 0.31978 24.9736 0.48909 24.9736 0.665623V3.33438ZM5.63925 20H8.30801C8.48455 20 8.65386 19.9299 8.77869 19.8051C8.90352 19.6802 8.97363 19.5109 8.97363 19.3344V4.66562C8.97363 4.48909 8.90352 4.31978 8.77869 4.19494C8.65386 4.07012 8.48455 4 8.30801 4H5.63925C5.46273 4.00002 5.29345 4.07017 5.16864 4.19501C5.04381 4.31982 4.97365 4.48909 4.97363 4.66562V19.3344C4.97365 19.5109 5.04381 19.6802 5.16864 19.805C5.29345 19.9298 5.46273 20 5.63925 20ZM24.308 20C24.4845 20 24.6538 19.9298 24.7786 19.805C24.9035 19.6802 24.9736 19.5109 24.9736 19.3344V4.66562C24.9736 4.48909 24.9035 4.31982 24.7786 4.19501C24.6538 4.07017 24.4845 4.00002 24.308 4H13.6393C13.4627 4 13.2934 4.07012 13.1686 4.19494C13.0438 4.31978 12.9736 4.48909 12.9736 4.66562V19.3344C12.9736 19.5109 13.0438 19.6802 13.1686 19.8051C13.2934 19.9299 13.4627 20 13.6393 20H24.308Z" fill="white"/>
</svg>
