<svg width="155" height="32" viewBox="0 0 155 32" fill="none" xmlns="http://www.w3.org/2000/svg">
<path d="M53.4812 26.6889C60.4748 26.6889 64.7233 22.4077 64.7233 15.2507C64.7233 8.35509 60.6709 3.8125 53.4812 3.8125H45.3438V26.6889H53.4812ZM49.4288 7.11323H53.1544C55.7361 7.11323 57.8277 7.76684 58.9388 9.40087C60.05 11.0349 60.3768 12.7016 60.3768 15.2507C60.3768 17.7671 59.9519 19.6625 58.8735 21.1332C57.7623 22.6038 55.8342 23.3881 53.1544 23.3881H49.4288V7.11323Z" fill="white"/>
<path d="M80.281 12.6689C78.9084 10.9369 76.7188 9.95644 74.1371 9.95644C71.6533 9.95644 69.6925 10.7408 68.2546 12.2441C66.7839 13.8127 66.065 15.9697 66.065 18.486C66.065 21.1332 66.7513 23.2901 68.2546 24.8261C69.6598 26.264 71.6207 27.081 74.1697 27.081C78.3528 27.081 81.0326 25.2182 81.8823 21.46L78.1241 21.1659C77.7646 23.1594 76.5227 24.1725 74.1371 24.1725C71.4246 24.1725 70.052 22.6365 69.9866 19.5972H82.1438C82.2418 16.7867 81.5882 14.3029 80.281 12.6689ZM74.1371 12.865C75.575 12.865 76.5554 13.2572 77.2744 14.1395C77.83 14.8258 78.1241 15.7736 78.1894 16.6886H70.0193C70.0847 15.9043 70.3134 15.0219 70.8363 14.3029C71.4899 13.3879 72.6011 12.865 74.1371 12.865Z" fill="white"/>
<path d="M90.0734 26.6889L98.6684 10.3486H94.4199L90.6943 18.0939C89.9427 19.6625 89.1583 21.46 88.4721 23.094C88.2433 20.8717 87.9818 18.9436 87.8838 18.0939L86.8707 10.3486H82.851L85.7269 26.6889H90.0734Z" fill="white"/>
<path d="M112.495 15.3487C112.495 11.7865 110.11 9.95644 105.894 9.95644C103.606 9.95644 101.809 10.3813 100.6 11.231C99.3577 12.0807 98.6388 13.4532 98.5407 15.3814L102.332 15.8716C102.364 13.584 103.41 12.7996 105.665 12.7996C107.005 12.7996 107.822 13.0938 108.28 13.7147C108.737 14.3683 108.737 15.1526 108.737 16.2311L103.868 17.1461C100.894 17.7017 97.9851 18.6821 97.9851 22.1789C97.9851 25.4797 100.632 27.081 103.639 27.081C106.319 27.081 108.083 25.9699 108.933 24.3685C108.933 25.3816 109.031 26.0679 109.162 26.6889H113.051V26.5581C112.724 25.7738 112.495 24.8261 112.495 23.7476V15.3487ZM108.737 20.4142C108.737 22.8326 107.234 24.2378 104.456 24.2378C103.051 24.2378 101.939 23.5515 101.939 22.1463C101.939 20.643 102.985 20.1528 104.489 19.7933L108.737 18.8782V20.4142Z" fill="white"/>
<path d="M33.9528 12.6216L28.6172 3.37838C28.0239 2.35086 27.1706 1.49767 26.1429 0.904614C25.1153 0.31156 23.9496 -0.000435726 22.7631 4.56724e-07H12.0949C10.9084 -0.000435726 9.74276 0.31156 8.71512 0.904614C7.68749 1.49767 6.83414 2.35086 6.2409 3.37838L0.905253 12.6216C0.312221 13.6488 0 14.8139 0 16C0 17.186 0.312221 18.3512 0.905253 19.3784L6.2409 28.6216C6.83414 29.6491 7.68749 30.5023 8.71512 31.0954C9.74276 31.6884 10.9084 32.0004 12.0949 32H22.7654C23.9519 32.0004 25.1176 31.6884 26.1453 31.0954C27.1729 30.5023 28.0262 29.6491 28.6195 28.6216L33.9551 19.3784C34.5478 18.351 34.8596 17.1857 34.8592 15.9997C34.8588 14.8136 34.5462 13.6486 33.9528 12.6216ZM30.361 17.7207C30.361 18.1705 30.2427 18.6124 30.0178 19.0019C29.793 19.3915 29.4696 19.7149 29.0801 19.9399L15.0173 28.0585C14.6278 28.2837 14.1859 28.4022 13.736 28.4022C13.2861 28.4022 12.8441 28.2837 12.4546 28.0585L9.47448 26.3385C9.08506 26.1135 8.76169 25.79 8.53685 25.4005C8.312 25.011 8.19361 24.5691 8.19354 24.1194V7.88137C8.19345 7.43158 8.31176 6.98971 8.53662 6.60016C8.76148 6.21061 9.08496 5.88712 9.47448 5.66222L12.4546 3.94146C12.8443 3.71668 13.2862 3.59833 13.736 3.59833C14.1858 3.59833 14.6277 3.71668 15.0173 3.94146L29.0801 12.0608C29.4695 12.2857 29.7929 12.609 30.0178 12.9984C30.2426 13.3878 30.361 13.8296 30.361 14.2792V17.7207Z" fill="white"/>
<rect x="121.25" y="6" width="33" height="20" rx="4" fill="#1C1F23"/>
<path d="M131.262 15.704C132.21 16.052 132.642 16.64 132.642 17.684C132.642 19.868 130.842 20 129.258 20H126.246V11.6H129.174C130.626 11.6 132.318 11.768 132.318 13.904C132.318 14.72 131.898 15.356 131.262 15.704ZM129.09 12.536H127.326V15.248H129.078C130.11 15.248 131.262 15.236 131.262 13.904C131.262 12.548 130.11 12.536 129.09 12.536ZM127.326 19.076H129.258C130.446 19.076 131.586 19.076 131.586 17.684C131.586 16.184 130.23 16.184 129.318 16.184H127.326V19.076ZM138.824 15.044C139.184 15.62 139.376 16.472 139.328 17.324H134.78C134.804 18.644 135.356 19.28 136.484 19.28C137.504 19.28 138.056 18.848 138.2 17.936L139.244 18.02C138.98 19.424 138.02 20.144 136.496 20.144C135.572 20.144 134.852 19.868 134.336 19.268C133.832 18.704 133.604 17.924 133.604 16.988C133.604 16.1 133.856 15.32 134.36 14.756C134.888 14.156 135.62 13.856 136.484 13.856C137.432 13.856 138.332 14.264 138.824 15.044ZM136.496 14.732C135.824 14.732 135.32 14.984 135.08 15.38C134.864 15.74 134.792 16.148 134.792 16.448H138.224C138.212 16.124 138.092 15.668 137.9 15.38C137.588 14.924 137.144 14.732 136.496 14.732ZM142.4 20.06C141.284 20.06 140.792 19.628 140.792 18.656V14.9H139.928V14H140.792V12.332H141.86V14H143.084V14.9H141.86V18.62C141.86 19.016 142.04 19.088 142.484 19.088C142.616 19.088 142.832 19.064 143.036 19.028L143.06 20C142.868 20.036 142.616 20.06 142.4 20.06ZM149.584 19.112L149.608 20C149.38 20.036 149.176 20.048 148.936 20.048C148.276 20.048 147.916 19.736 147.856 19.112C147.52 19.796 146.86 20.144 145.84 20.144C144.832 20.144 143.824 19.592 143.824 18.416C143.824 17.12 144.916 16.76 145.864 16.58L147.844 16.196C147.844 15.656 147.82 15.356 147.64 15.104C147.472 14.864 147.076 14.708 146.548 14.708C145.504 14.708 145.084 15.092 145.084 16.004L144.028 15.86C144.052 15.14 144.304 14.612 144.772 14.3C145.204 14.012 145.84 13.856 146.608 13.856C148.12 13.856 148.888 14.528 148.888 15.836V18.704C148.888 19.016 148.888 19.16 149.236 19.16C149.332 19.16 149.428 19.148 149.584 19.112ZM147.844 17.732V17L146.032 17.396C145.396 17.54 144.928 17.72 144.928 18.404C144.928 18.968 145.42 19.28 146.008 19.28C147.316 19.28 147.844 18.596 147.844 17.732Z" fill="#6B7584"/>
</svg>
