<svg width="16" height="16" viewBox="0 0 16 16" fill="none" xmlns="http://www.w3.org/2000/svg">
<path d="M15.1066 6.2763C16.2978 7.11674 16.2978 8.88326 15.1066 9.7237C14.4412 10.1932 14.1054 11.0038 14.244 11.8063C14.492 13.2429 13.2429 14.492 11.8063 14.244C11.0038 14.1054 10.1932 14.4412 9.7237 15.1066C8.88326 16.2978 7.11674 16.2978 6.2763 15.1066C5.80681 14.4412 4.99622 14.1054 4.19371 14.244C2.75713 14.492 1.50801 13.2429 1.75603 11.8063C1.89458 11.0038 1.55883 10.1932 0.893392 9.7237C-0.297799 8.88326 -0.297798 7.11674 0.893392 6.2763C1.55883 5.80681 1.89458 4.99622 1.75603 4.19371C1.50801 2.75713 2.75713 1.50801 4.19371 1.75603C4.99622 1.89458 5.80681 1.55883 6.2763 0.893392C7.11674 -0.297798 8.88326 -0.297798 9.7237 0.893392C10.1932 1.55883 11.0038 1.89458 11.8063 1.75603C13.2429 1.50801 14.492 2.75713 14.244 4.19371C14.1054 4.99622 14.4412 5.80681 15.1066 6.2763Z" fill="#3858FB"/>
<path d="M5.69922 8.5L7.19922 10L10.6992 6.5" stroke="white" stroke-width="1.4" stroke-linecap="square" stroke-linejoin="round"/>
</svg>
